<svg width="42" height="43" viewBox="0 0 42 43" fill="none" xmlns="http://www.w3.org/2000/svg">
<path d="M27.1994 14.8806C27.1994 14.8806 20.1935 22.3419 18.3869 28.0994L13.9807 23.6931M38.9494 21.49C38.9494 26.3592 37.0151 31.029 33.5721 34.472C30.129 37.9151 25.4592 39.8494 20.59 39.8494C15.7208 39.8494 11.051 37.9151 7.60799 34.472C4.16494 31.029 2.23065 26.3592 2.23065 21.49C2.23065 16.6208 4.16494 11.951 7.60799 8.50795C11.051 5.0649 15.7208 3.13062 20.59 3.13062C25.4592 3.13062 30.129 5.0649 33.5721 8.50795C37.0151 11.951 38.9494 16.6208 38.9494 21.49Z" stroke="#59D499" stroke-width="4.40625" stroke-linecap="round" stroke-linejoin="round"/>
</svg>
