<svg width="111" height="43" viewBox="0 0 111 43" fill="none" xmlns="http://www.w3.org/2000/svg">
<g filter="url(#filter0_d_3_262)">
<g clip-path="url(#clip0_3_262)">
<path d="M34.1119 27.5729H26.6677V25.0972H36.0391V22.6216H26.6505C25.9985 22.6216 25.3732 22.8806 24.9121 23.3416C24.4511 23.8027 24.1921 24.428 24.1921 25.08V27.5901C24.1921 28.2421 24.4511 28.8674 24.9121 29.3285C25.3732 29.7895 25.9985 30.0486 26.6505 30.0486H34.0947V32.5242H24.3692V34.9999H34.1119C34.7639 34.9999 35.3892 34.7409 35.8503 34.2798C36.3114 33.8188 36.5704 33.1934 36.5704 32.5414V30.0314C36.5704 29.3793 36.3114 28.754 35.8503 28.293C35.3892 27.8319 34.7639 27.5729 34.1119 27.5729Z" fill="white"/>
<path d="M48.5274 22.6216H41.0557C40.733 22.6216 40.4134 22.6852 40.1152 22.8088C39.817 22.9323 39.5461 23.1134 39.318 23.3418C39.0898 23.5701 38.9089 23.8411 38.7855 24.1394C38.6622 24.4376 38.5988 24.7573 38.599 25.08V32.5414C38.5988 32.8642 38.6622 33.1838 38.7855 33.4821C38.9089 33.7804 39.0898 34.0514 39.318 34.2797C39.5461 34.508 39.817 34.6891 40.1152 34.8127C40.4134 34.9363 40.733 34.9999 41.0557 34.9999H48.5274C49.1794 34.9999 49.8048 34.7409 50.2658 34.2798C50.7269 33.8188 50.9859 33.1934 50.9859 32.5414V25.08C50.9859 24.428 50.7269 23.8027 50.2658 23.3416C49.8048 22.8806 49.1794 22.6216 48.5274 22.6216V22.6216ZM48.5102 32.5242H41.0833V25.0972H48.5102V32.5242Z" fill="white"/>
<path d="M74.6766 22.6216H67.3906C66.7386 22.6216 66.1132 22.8806 65.6522 23.3417C65.1911 23.8027 64.9321 24.428 64.9321 25.08V34.9999H67.4078V30.9322H74.6594V34.9999H77.1351V25.08C77.1353 24.7571 77.0718 24.4373 76.9484 24.139C76.8249 23.8406 76.6438 23.5695 76.4155 23.3411C76.1872 23.1128 75.916 22.9317 75.6177 22.8083C75.3193 22.6848 74.9995 22.6214 74.6766 22.6216ZM74.6594 28.4566H67.4078V25.0972H74.6594V28.4566Z" fill="white"/>
<path d="M103.662 22.6216H96.3782C96.0549 22.6209 95.7346 22.684 95.4358 22.8072C95.1369 22.9305 94.8653 23.1115 94.6364 23.3398C94.4076 23.5682 94.2261 23.8394 94.1022 24.138C93.9783 24.4367 93.9146 24.7568 93.9146 25.0801V34.9999H96.3902V30.9322H103.645V34.9999H106.121V25.0801C106.121 24.428 105.862 23.8027 105.401 23.3417C104.94 22.8806 104.314 22.6216 103.662 22.6216ZM103.645 28.4566H96.3954V25.0972H103.645V28.4566Z" fill="white"/>
<path d="M89.24 32.5242H88.2497L84.7013 23.6531C84.5799 23.3487 84.37 23.0877 84.0988 22.9039C83.8276 22.72 83.5075 22.6217 83.1798 22.6216H80.9757C80.5412 22.6216 80.1245 22.7942 79.8172 23.1015C79.51 23.4087 79.3373 23.8255 79.3373 24.26V34.9999H81.813V25.0972H82.8033L86.35 33.9683C86.4709 34.2727 86.6804 34.5338 86.9513 34.7177C87.2223 34.9016 87.5423 34.9999 87.8698 34.9999H90.0738C90.5083 34.9999 90.9251 34.8273 91.2323 34.52C91.5396 34.2127 91.7122 33.796 91.7122 33.3615V22.6216H89.2365L89.24 32.5242Z" fill="white"/>
<path d="M55.6553 22.6216H53.1796V32.5414C53.1796 33.1934 53.4386 33.8188 53.8997 34.2798C54.3607 34.7409 54.9861 34.9999 55.6381 34.9999H63.0823V32.5242H55.6553V22.6216Z" fill="white"/>
<path fill-rule="evenodd" clip-rule="evenodd" d="M6.62004 32.06C6.66399 32.0124 6.7171 31.9742 6.77618 31.9476C6.83526 31.921 6.8991 31.9066 6.96388 31.9053H17.7674C17.8131 31.9059 17.8576 31.9198 17.8957 31.9451C17.9337 31.9705 17.9636 32.0063 17.9818 32.0483C17.9999 32.0902 18.0056 32.1365 17.998 32.1816C17.9905 32.2267 17.9701 32.2687 17.9393 32.3024L15.6493 34.8451C15.6054 34.8927 15.5523 34.931 15.4932 34.9576C15.4341 34.9842 15.3702 34.9985 15.3055 34.9999H4.4951C4.44939 34.9992 4.40484 34.9854 4.3668 34.96C4.32877 34.9347 4.29888 34.8988 4.28072 34.8569C4.26255 34.8149 4.2569 34.7686 4.26443 34.7235C4.27197 34.6785 4.29237 34.6365 4.32318 34.6027L6.62004 32.06ZM17.9496 29.9523C17.9804 29.9861 18.0008 30.028 18.0084 30.0731C18.0159 30.1182 18.0102 30.1645 17.9921 30.2064C17.9739 30.2484 17.944 30.2842 17.906 30.3096C17.868 30.3349 17.8234 30.3488 17.7777 30.3494L6.97076 30.358C6.90598 30.3567 6.84214 30.3423 6.78306 30.3157C6.72397 30.2891 6.67087 30.2509 6.62692 30.2033L4.31974 27.6692C4.28893 27.6354 4.26853 27.5934 4.26099 27.5484C4.25346 27.5033 4.25912 27.457 4.27728 27.415C4.29544 27.3731 4.32533 27.3372 4.36337 27.3119C4.4014 27.2865 4.44595 27.2727 4.49166 27.272L15.2986 27.2634C15.3634 27.2648 15.4272 27.2792 15.4863 27.3057C15.5454 27.3323 15.5985 27.3706 15.6424 27.4182L17.9496 29.9523ZM6.62004 22.7763C6.66399 22.7287 6.7171 22.6905 6.77618 22.6639C6.83526 22.6373 6.8991 22.6229 6.96388 22.6216L17.7743 22.6302C17.82 22.6308 17.8645 22.6447 17.9025 22.67C17.9406 22.6954 17.9705 22.7312 17.9886 22.7732C18.0068 22.8151 18.0125 22.8614 18.0049 22.9065C17.9974 22.9516 17.977 22.9935 17.9462 23.0273L15.6493 25.5614C15.6054 25.609 15.5523 25.6473 15.4932 25.6739C15.4341 25.7004 15.3702 25.7148 15.3055 25.7162H4.4951C4.44939 25.7155 4.40484 25.7017 4.3668 25.6763C4.32877 25.6509 4.29888 25.6151 4.28072 25.5732C4.26255 25.5312 4.2569 25.4849 4.26443 25.4398C4.27197 25.3947 4.29237 25.3528 4.32318 25.319L6.62004 22.7763Z" fill="white"/>
</g>
<path d="M5.13843 13V3.59877H8.31502C9.05255 3.59877 9.65543 3.73189 10.1237 3.99814C10.5949 4.26132 10.9438 4.61785 11.1703 5.06771C11.3967 5.51757 11.51 6.01946 11.51 6.57338C11.51 7.12729 11.3967 7.63071 11.1703 8.08363C10.9469 8.53656 10.6011 8.89767 10.1328 9.16698C9.66461 9.43322 9.06479 9.56635 8.33338 9.56635H6.05652V8.55645H8.29666C8.80161 8.55645 9.20709 8.46923 9.51312 8.29479C9.81915 8.12036 10.041 7.88471 10.1787 7.58787C10.3195 7.28796 10.3899 6.94979 10.3899 6.57338C10.3899 6.19696 10.3195 5.86033 10.1787 5.56348C10.041 5.26663 9.81762 5.03405 9.50853 4.86573C9.19944 4.69435 8.78936 4.60867 8.27829 4.60867H6.27686V13H5.13843ZM15.9857 13.1469C15.3491 13.1469 14.7906 12.9954 14.3101 12.6924C13.8327 12.3895 13.4594 11.9656 13.1901 11.4209C12.9238 10.8762 12.7907 10.2396 12.7907 9.51126C12.7907 8.77679 12.9238 8.13566 13.1901 7.58787C13.4594 7.04007 13.8327 6.61469 14.3101 6.31172C14.7906 6.00875 15.3491 5.85727 15.9857 5.85727C16.6222 5.85727 17.1792 6.00875 17.6566 6.31172C18.137 6.61469 18.5104 7.04007 18.7766 7.58787C19.0459 8.13566 19.1806 8.77679 19.1806 9.51126C19.1806 10.2396 19.0459 10.8762 18.7766 11.4209C18.5104 11.9656 18.137 12.3895 17.6566 12.6924C17.1792 12.9954 16.6222 13.1469 15.9857 13.1469ZM15.9857 12.1737C16.4692 12.1737 16.867 12.0498 17.1792 11.8019C17.4913 11.554 17.7224 11.2281 17.8723 10.8241C18.0223 10.4202 18.0973 9.98255 18.0973 9.51126C18.0973 9.03998 18.0223 8.60082 17.8723 8.1938C17.7224 7.78678 17.4913 7.4578 17.1792 7.20686C16.867 6.95591 16.4692 6.83044 15.9857 6.83044C15.5021 6.83044 15.1043 6.95591 14.7921 7.20686C14.48 7.4578 14.2489 7.78678 14.099 8.1938C13.949 8.60082 13.874 9.03998 13.874 9.51126C13.874 9.98255 13.949 10.4202 14.099 10.8241C14.2489 11.2281 14.48 11.554 14.7921 11.8019C15.1043 12.0498 15.5021 12.1737 15.9857 12.1737ZM22.1919 13L20.0436 5.94908H21.182L22.7061 11.3474H22.7795L24.2852 5.94908H25.442L26.9293 11.3291H27.0027L28.5267 5.94908H29.6652L27.5168 13H26.4519L24.9095 7.58327H24.7993L23.2569 13H22.1919ZM33.8138 13.1469C33.1344 13.1469 32.5484 12.9969 32.0557 12.697C31.566 12.3941 31.1881 11.9717 30.9218 11.4301C30.6586 10.8853 30.527 10.2519 30.527 9.52962C30.527 8.80739 30.6586 8.17085 30.9218 7.62C31.1881 7.06608 31.5584 6.63458 32.0327 6.32549C32.5101 6.01334 33.0671 5.85727 33.7036 5.85727C34.0709 5.85727 34.4335 5.91847 34.7916 6.04088C35.1496 6.1633 35.4755 6.36222 35.7693 6.63764C36.0631 6.91001 36.2972 7.27112 36.4717 7.72099C36.6461 8.17085 36.7333 8.72477 36.7333 9.38273V9.84177H31.2982V8.90532H35.6316C35.6316 8.50748 35.552 8.15249 35.3929 7.84034C35.2368 7.52819 35.0134 7.28184 34.7227 7.10128C34.435 6.92072 34.0953 6.83044 33.7036 6.83044C33.2721 6.83044 32.8988 6.93755 32.5836 7.15177C32.2714 7.36293 32.0312 7.63836 31.8629 7.97805C31.6945 8.31775 31.6104 8.68192 31.6104 9.07058V9.69488C31.6104 10.2274 31.7022 10.6788 31.8858 11.0491C32.0725 11.4163 32.3311 11.6963 32.6616 11.8891C32.9921 12.0789 33.3762 12.1737 33.8138 12.1737C34.0984 12.1737 34.3555 12.1339 34.585 12.0544C34.8176 11.9717 35.018 11.8493 35.1863 11.6871C35.3547 11.5219 35.4847 11.3168 35.5765 11.072L36.6231 11.3658C36.513 11.7208 36.3278 12.0329 36.0677 12.3023C35.8076 12.5685 35.4862 12.7766 35.1037 12.9266C34.7212 13.0734 34.2912 13.1469 33.8138 13.1469ZM38.3813 13V5.94908H39.4279V7.01406H39.5014C39.6299 6.66519 39.8625 6.38211 40.1991 6.16483C40.5357 5.94755 40.9152 5.83891 41.3375 5.83891C41.4171 5.83891 41.5166 5.84044 41.6359 5.8435C41.7553 5.84656 41.8455 5.85115 41.9067 5.85727V6.95897C41.87 6.94979 41.7859 6.93602 41.6543 6.91766C41.5257 6.89624 41.3896 6.88553 41.2457 6.88553C40.903 6.88553 40.5969 6.95744 40.3276 7.10128C40.0614 7.24205 39.8502 7.43791 39.6942 7.68885C39.5411 7.93674 39.4646 8.21982 39.4646 8.53809V13H38.3813ZM45.9326 13.1469C45.2532 13.1469 44.6671 12.9969 44.1744 12.697C43.6848 12.3941 43.3068 11.9717 43.0406 11.4301C42.7774 10.8853 42.6458 10.2519 42.6458 9.52962C42.6458 8.80739 42.7774 8.17085 43.0406 7.62C43.3068 7.06608 43.6771 6.63458 44.1515 6.32549C44.6289 6.01334 45.1859 5.85727 45.8224 5.85727C46.1896 5.85727 46.5523 5.91847 46.9103 6.04088C47.2684 6.1633 47.5943 6.36222 47.8881 6.63764C48.1819 6.91001 48.416 7.27112 48.5904 7.72099C48.7649 8.17085 48.8521 8.72477 48.8521 9.38273V9.84177H43.417V8.90532H47.7504C47.7504 8.50748 47.6708 8.15249 47.5117 7.84034C47.3556 7.52819 47.1322 7.28184 46.8415 7.10128C46.5538 6.92072 46.2141 6.83044 45.8224 6.83044C45.3909 6.83044 45.0175 6.93755 44.7023 7.15177C44.3902 7.36293 44.1499 7.63836 43.9816 7.97805C43.8133 8.31775 43.7292 8.68192 43.7292 9.07058V9.69488C43.7292 10.2274 43.821 10.6788 44.0046 11.0491C44.1913 11.4163 44.4499 11.6963 44.7804 11.8891C45.1109 12.0789 45.4949 12.1737 45.9326 12.1737C46.2172 12.1737 46.4742 12.1339 46.7038 12.0544C46.9363 11.9717 47.1368 11.8493 47.3051 11.6871C47.4734 11.5219 47.6035 11.3168 47.6953 11.072L48.7419 11.3658C48.6317 11.7208 48.4466 12.0329 48.1865 12.3023C47.9263 12.5685 47.605 12.7766 47.2225 12.9266C46.8399 13.0734 46.41 13.1469 45.9326 13.1469ZM53.1625 13.1469C52.5749 13.1469 52.0562 12.9985 51.6064 12.7016C51.1565 12.4017 50.8046 11.9794 50.5506 11.4347C50.2965 10.8869 50.1695 10.2396 50.1695 9.4929C50.1695 8.75231 50.2965 8.10965 50.5506 7.56491C50.8046 7.02018 51.158 6.59939 51.6109 6.30254C52.0639 6.00569 52.5872 5.85727 53.1809 5.85727C53.6399 5.85727 54.0026 5.93378 54.2688 6.08679C54.5381 6.23674 54.7432 6.40812 54.8839 6.60092C55.0278 6.79066 55.1395 6.94673 55.219 7.06914H55.3108V3.59877H56.3942V13H55.3476V11.9167H55.219C55.1395 12.0452 55.0262 12.2074 54.8793 12.4032C54.7324 12.596 54.5228 12.7689 54.2505 12.922C53.9781 13.0719 53.6154 13.1469 53.1625 13.1469ZM53.3094 12.1737C53.744 12.1737 54.1112 12.0605 54.4111 11.834C54.711 11.6045 54.939 11.2878 55.0951 10.8838C55.2512 10.4768 55.3292 10.007 55.3292 9.47454C55.3292 8.94817 55.2527 8.48759 55.0997 8.09281C54.9467 7.69498 54.7202 7.38589 54.4203 7.16554C54.1204 6.94214 53.7501 6.83044 53.3094 6.83044C52.8504 6.83044 52.4678 6.94826 52.1618 7.18391C51.8588 7.41649 51.6308 7.73323 51.4778 8.13413C51.3279 8.53197 51.2529 8.97877 51.2529 9.47454C51.2529 9.97643 51.3294 10.4324 51.4824 10.8425C51.6385 11.2495 51.868 11.5739 52.171 11.8157C52.477 12.0544 52.8565 12.1737 53.3094 12.1737ZM62.3113 13V3.59877H63.3946V7.06914H63.4864C63.566 6.94673 63.6762 6.79066 63.8169 6.60092C63.9608 6.40812 64.1658 6.23674 64.4321 6.08679C64.7014 5.93378 65.0655 5.85727 65.5246 5.85727C66.1183 5.85727 66.6416 6.00569 67.0945 6.30254C67.5474 6.59939 67.9009 7.02018 68.1549 7.56491C68.4089 8.10965 68.5359 8.75231 68.5359 9.4929C68.5359 10.2396 68.4089 10.8869 68.1549 11.4347C67.9009 11.9794 67.549 12.4017 67.0991 12.7016C66.6492 12.9985 66.1305 13.1469 65.5429 13.1469C65.09 13.1469 64.7274 13.0719 64.455 12.922C64.1826 12.7689 63.973 12.596 63.8261 12.4032C63.6792 12.2074 63.566 12.0452 63.4864 11.9167H63.3579V13H62.3113ZM63.3763 9.47454C63.3763 10.007 63.4543 10.4768 63.6104 10.8838C63.7664 11.2878 63.9944 11.6045 64.2943 11.834C64.5943 12.0605 64.9615 12.1737 65.3961 12.1737C65.849 12.1737 66.2269 12.0544 66.5299 11.8157C66.8359 11.5739 67.0654 11.2495 67.2185 10.8425C67.3745 10.4324 67.4526 9.97643 67.4526 9.47454C67.4526 8.97877 67.3761 8.53197 67.2231 8.13413C67.0731 7.73323 66.8451 7.41649 66.5391 7.18391C66.2361 6.94826 65.8551 6.83044 65.3961 6.83044C64.9554 6.83044 64.5851 6.94214 64.2852 7.16554C63.9853 7.38589 63.7588 7.69498 63.6058 8.09281C63.4528 8.48759 63.3763 8.94817 63.3763 9.47454ZM70.6383 15.6441C70.4547 15.6441 70.291 15.6288 70.1472 15.5982C70.0033 15.5706 69.9039 15.5431 69.8488 15.5156L70.1242 14.5608C70.3874 14.6281 70.62 14.6526 70.822 14.6342C71.0239 14.6158 71.203 14.5256 71.359 14.3634C71.5182 14.2042 71.6635 13.9456 71.7951 13.5876L71.9971 13.0367L69.3897 5.94908H70.5649L72.5112 11.5678H72.5847L74.531 5.94908H75.7062L72.7132 14.0283C72.5786 14.3924 72.4118 14.6939 72.2129 14.9326C72.0139 15.1743 71.7829 15.3534 71.5197 15.4697C71.2596 15.586 70.9658 15.6441 70.6383 15.6441Z" fill="white"/>
</g>
<defs>
<filter id="filter0_d_3_262" x="0" y="3.59875" width="110.121" height="39.4012" filterUnits="userSpaceOnUse" color-interpolation-filters="sRGB">
<feFlood flood-opacity="0" result="BackgroundImageFix"/>
<feColorMatrix in="SourceAlpha" type="matrix" values="0 0 0 0 0 0 0 0 0 0 0 0 0 0 0 0 0 0 127 0" result="hardAlpha"/>
<feOffset dy="4"/>
<feGaussianBlur stdDeviation="2"/>
<feComposite in2="hardAlpha" operator="out"/>
<feColorMatrix type="matrix" values="0 0 0 0 0 0 0 0 0 0 0 0 0 0 0 0 0 0 0.25 0"/>
<feBlend mode="normal" in2="BackgroundImageFix" result="effect1_dropShadow_3_262"/>
<feBlend mode="normal" in="SourceGraphic" in2="effect1_dropShadow_3_262" result="shape"/>
</filter>
<clipPath id="clip0_3_262">
<rect width="102.121" height="12.3783" fill="white" transform="translate(4 22.6217)"/>
</clipPath>
</defs>
</svg>
